<?xml version="1.0" standalone="no"?><!DOCTYPE svg PUBLIC "-//W3C//DTD SVG 1.1//EN" "http://www.w3.org/Graphics/SVG/1.1/DTD/svg11.dtd"><svg class="icon" width="128px" height="128.00px" viewBox="0 0 1024 1024" version="1.1" xmlns="http://www.w3.org/2000/svg"><path d="M726.411087 7.522772c10.030362 10.030362 10.030362 26.333732 0.419275 36.154456l-33.856504 33.856504h129.362646c110.543622 0 200.615307 90.063622 200.615307 200.615307V369.688189a25.688693 25.688693 0 0 1-25.704819 25.704819 25.688693 25.688693 0 0 1-25.704819-25.704819V278.149039c0-82.331213-67.084094-149.415307-149.415307-149.415307H692.76422l33.864567 33.848441a25.479055 25.479055 0 0 1 0 36.154457 25.454866 25.454866 0 0 1-18.19011 7.522772c-6.692283 0-13.166866-2.499528-18.182047-7.522772l-77.525669-77.525669a25.479055 25.479055 0 0 1 0-36.154457L690.25663 7.522772a25.479055 25.479055 0 0 1 36.154457 0z m-204.8 542.510362c0-13.997354 11.497827-25.495181 25.495181-25.704819h448.060472a25.688693 25.688693 0 0 1 25.696756 25.704819v447.842772a25.688693 25.688693 0 0 1-25.704819 25.704818H547.315906a25.688693 25.688693 0 0 1-25.704819-25.704818V550.033134z m51.2 25.704819v396.642771h396.433133V575.737953H572.811087zM0.628913 745.431685V653.900598a25.688693 25.688693 0 0 1 25.704819-25.704818 25.688693 25.688693 0 0 1 25.704819 25.704818v91.321449c0 82.339276 67.084094 149.42337 149.415307 149.42337H330.824567l-33.856504-33.864567a25.479055 25.479055 0 0 1 0-36.146393 25.479055 25.479055 0 0 1 36.154457 0l77.533732 77.533732c4.805543 4.805543 7.522772 11.288189 7.522772 18.173984 0 6.901921-2.717228 13.384567-7.522772 18.182047l-77.533732 77.533733a25.454866 25.454866 0 0 1-18.182048 7.522771c-6.692283 0-13.166866-2.499528-18.182047-7.522771a25.479055 25.479055 0 0 1 0-36.154457l33.856504-33.856504H201.24422c-110.543622 0-200.615307-90.063622-200.615307-200.615307zM476.055181 0c14.005417 0 25.495181 11.497827 25.704819 25.704819v447.842772a25.688693 25.688693 0 0 1-25.704819 25.704818H28.212409a25.688693 25.688693 0 0 1-25.704818-25.704818V25.704819A25.688693 25.688693 0 0 1 28.212409 0h447.842772z m-25.704819 447.842772h0.209638V51.2H53.917228v396.642772h396.433134z" fill="#1afa29" /></svg>